<?xml version="1.0" encoding="UTF-8"?>
<svg version="1.1" xmlns="http://www.w3.org/2000/svg" width="316" height="316">
<path d="M0 0 C0.9486644 -0.00960754 1.8973288 -0.01921509 2.8747406 -0.02911377 C3.91002396 -0.03336365 4.94530731 -0.03761353 6.01196289 -0.04199219 C7.07443741 -0.04769226 8.13691193 -0.05339233 9.23158264 -0.05926514 C11.4904785 -0.06873757 13.74938833 -0.07525797 16.00830078 -0.07910156 C19.43881101 -0.0887385 22.8687046 -0.11971215 26.29907227 -0.15136719 C28.49503225 -0.15790395 30.69099653 -0.16315177 32.88696289 -0.16699219 C33.90402817 -0.17933899 34.92109344 -0.19168579 35.96897888 -0.20440674 C47.93340989 -0.16765628 56.41740356 3.03141724 64.85961914 11.47363281 C69.16302054 18.32719801 71.38154247 26.88638534 70.10961914 34.92675781 C68.65309568 40.9845713 66.63291468 45.44675334 62.54711914 50.16113281 C61.88711914 50.16113281 61.22711914 50.16113281 60.54711914 50.16113281 C62.44192458 52.59731124 64.25642768 54.89769368 66.54711914 56.97363281 C72.71093502 63.71530644 73.63317482 71.23285616 73.54711914 80.16113281 C72.89418256 88.34615917 69.96066579 95.33382293 64.48461914 101.47363281 C55.73883512 106.49780661 46.78366674 107.76592489 36.85180664 107.80566406 C35.69713898 107.82457199 34.54247131 107.84347992 33.35281372 107.86296082 C30.937881 107.89918 28.52279859 107.92645306 26.10766602 107.94506836 C22.3968843 107.97382839 18.68720519 108.02898263 14.97680664 108.08886719 C12.62266006 108.120974 10.26849308 108.15162623 7.91430664 108.18066406 C6.80296356 108.19515091 5.69162048 108.20963776 4.54660034 108.2245636 C3.52438385 108.23174911 2.50216736 108.23893463 1.44897461 108.24633789 C0.54807098 108.25425858 -0.35283264 108.26217926 -1.28103638 108.27033997 C-3.45288086 108.16113281 -3.45288086 108.16113281 -5.45288086 107.16113281 C-5.47621144 93.35772394 -5.4937944 79.55431811 -5.50469303 65.75089359 C-5.50992252 59.34214153 -5.51702136 52.93340267 -5.52832031 46.5246582 C-5.53914685 40.3455384 -5.54515719 34.16643133 -5.5477581 27.98730278 C-5.54961278 25.62407671 -5.55323418 23.26085137 -5.55861092 20.89763069 C-5.56581824 17.60011385 -5.56687193 14.30265034 -5.56640625 11.00512695 C-5.57000153 10.01754395 -5.5735968 9.02996094 -5.57730103 8.01245117 C-5.57592636 7.11917618 -5.5745517 6.22590118 -5.57313538 5.30555725 C-5.57405717 4.52479859 -5.57497896 3.74403994 -5.57592869 2.93962193 C-5.32721714 -0.65516548 -3.07309297 0.02503658 0 0 Z M14.54711914 19.16113281 C14.54711914 27.08113281 14.54711914 35.00113281 14.54711914 43.16113281 C18.94332138 43.24204451 23.33803511 43.30159855 27.73461914 43.34863281 C29.6034375 43.38633789 29.6034375 43.38633789 31.51000977 43.42480469 C32.71206055 43.43447266 33.91411133 43.44414062 35.15258789 43.45410156 C36.81004028 43.47766724 36.81004028 43.47766724 38.50097656 43.50170898 C43.35840814 42.95862034 45.80169929 41.06772453 48.85961914 37.34863281 C50.7485599 33.7806336 51.207797 32.1252 50.54711914 28.16113281 C48.42424581 23.83047121 46.3245387 21.55271942 41.83203125 19.7434082 C36.86559228 18.47778613 31.6968778 18.8608397 26.60961914 18.97363281 C25.44881836 18.98716797 24.28801758 19.00070313 23.09204102 19.01464844 C20.2435323 19.04981521 17.39526423 19.10361605 14.54711914 19.16113281 Z M14.54711914 62.16113281 C14.54711914 70.74113281 14.54711914 79.32113281 14.54711914 88.16113281 C19.04748536 88.242356 23.54637282 88.30175004 28.04711914 88.34863281 C29.31555664 88.37376953 30.58399414 88.39890625 31.89086914 88.42480469 C38.81018256 88.47886182 44.33965818 88.36279654 50.54711914 85.16113281 C53.63583251 80.91415193 54.10113699 77.33196609 53.54711914 72.16113281 C52.22441355 67.94500874 51.01453105 66.47482066 47.32836914 64.00097656 C41.21351256 61.08384166 34.66961547 61.73614815 28.04711914 61.91113281 C26.74774414 61.92917969 25.44836914 61.94722656 24.10961914 61.96582031 C20.92179902 62.01270002 17.73436123 62.08443447 14.54711914 62.16113281 Z " fill="#6B9ED4" transform="translate(142.452880859375,103.8388671875)"/>
<path d="M0 0 C0.25035503 5.29751253 0.43007191 10.59146735 0.54931641 15.89355469 C0.59909456 17.69006417 0.66695084 19.48617958 0.75439453 21.28125 C1.33228649 33.46457214 0.22623883 41.20288891 -7.83447266 50.65380859 C-8.54909668 51.42805176 -9.2637207 52.20229492 -10 53 C-9.49186768 53.8053418 -8.98373535 54.61068359 -8.46020508 55.44042969 C-7.24820964 57.36132812 -6.03621419 59.28222656 -4.82421875 61.203125 C-3.1814716 63.92072166 -3.1814716 63.92072166 -1.40429688 65.63085938 C0.69734093 69.17645974 0.36938132 72.70303233 0.29296875 76.703125 C0.28872391 77.54091492 0.28447906 78.37870483 0.28010559 79.24188232 C0.26334408 81.91158502 0.22569711 84.58052637 0.1875 87.25 C0.17244987 89.06248908 0.15876203 90.87499002 0.14648438 92.6875 C0.11344889 97.12529231 0.06168443 101.56251717 0 106 C-3.15849685 107.57924842 -6.5365128 107.14316514 -10 107.125 C-11.10601562 107.13080078 -11.10601562 107.13080078 -12.234375 107.13671875 C-17.7466804 107.1266598 -17.7466804 107.1266598 -20 106 C-20 91.81 -20 77.62 -20 63 C-32.87 63 -45.74 63 -59 63 C-58.98839844 65.85269531 -58.97679688 68.70539063 -58.96484375 71.64453125 C-58.95704698 74.40470264 -58.95097374 77.16487282 -58.94506836 79.92504883 C-58.94003685 81.84465076 -58.93321102 83.76424886 -58.92456055 85.68383789 C-58.91244331 88.44157864 -58.90675989 91.19926876 -58.90234375 93.95703125 C-58.89718246 94.81649857 -58.89202118 95.67596588 -58.88670349 96.56147766 C-58.88659019 97.76238289 -58.88659019 97.76238289 -58.88647461 98.98754883 C-58.884254 99.6914827 -58.88203339 100.39541656 -58.87974548 101.12068176 C-59 103 -59 103 -60 106 C-64.42641221 106.90005954 -68.31644703 107.00523762 -72.8125 106.625 C-73.95332031 106.53476563 -75.09414062 106.44453125 -76.26953125 106.3515625 C-79 106 -79 106 -80 105 C-80.09750476 103.63624871 -80.12631599 102.26750091 -80.12698364 100.90026855 C-80.12980347 100.01685287 -80.13262329 99.13343719 -80.13552856 98.22325134 C-80.13350433 97.24659012 -80.1314801 96.26992889 -80.12939453 95.26367188 C-80.13114685 94.24100723 -80.13289917 93.21834259 -80.13470459 92.16468811 C-80.13912527 88.76602508 -80.13618435 85.36741361 -80.1328125 81.96875 C-80.13348548 79.61844879 -80.13445545 77.26814765 -80.13571167 74.91784668 C-80.13718894 69.98477518 -80.13503316 65.05172175 -80.13037109 60.11865234 C-80.1246738 53.77949333 -80.12795265 47.44037664 -80.13394356 41.10121918 C-80.13754839 36.24582599 -80.13641094 31.39044292 -80.13381577 26.53504944 C-80.13314628 24.19694514 -80.13397566 21.85883994 -80.13629532 19.52073669 C-80.13882057 16.25924223 -80.13498304 12.99781737 -80.12939453 9.73632812 C-80.13243088 8.27133629 -80.13243088 8.27133629 -80.13552856 6.77674866 C-80.13270874 5.89333298 -80.12988892 5.0099173 -80.12698364 4.09973145 C-80.12660662 3.32764595 -80.12622959 2.55556046 -80.12584114 1.76007843 C-80 0 -80 0 -79 -1 C-77.58429877 -1.08651611 -76.164405 -1.10704904 -74.74609375 -1.09765625 C-73.46508789 -1.09282227 -73.46508789 -1.09282227 -72.15820312 -1.08789062 C-71.26037109 -1.07951172 -70.36253906 -1.07113281 -69.4375 -1.0625 C-68.53580078 -1.05798828 -67.63410156 -1.05347656 -66.70507812 -1.04882812 C-64.46998686 -1.03700225 -62.23502563 -1.0205222 -60 -1 C-58.81073728 3.23102588 -58.87443678 7.33909081 -58.90234375 11.703125 C-58.90335083 12.4461084 -58.90435791 13.1890918 -58.90539551 13.95458984 C-58.91061224 16.71974235 -58.9245735 19.48487279 -58.9375 22.25 C-58.958125 28.4375 -58.97875 34.625 -59 41 C-39.695 41.495 -39.695 41.495 -20 42 C-20 27.81 -20 13.62 -20 -1 C-4 -2 -4 -2 0 0 Z " fill="#5754BA" transform="translate(84,105)"/>
<path d="M0 0 C5.61 0 11.22 0 17 0 C18.08243124 4.32972495 17.8657049 5.15332103 16.3046875 9.11328125 C15.92103027 10.10634277 15.53737305 11.0994043 15.14208984 12.12255859 C14.7239502 13.17523926 14.30581055 14.22791992 13.875 15.3125 C13.02912165 17.4978753 12.18536353 19.68407247 11.34375 21.87109375 C10.93511719 22.92925293 10.52648437 23.98741211 10.10546875 25.07763672 C8.75440204 28.64925078 7.54567687 32.24036471 6.375 35.875 C4.69616004 41.04241249 2.82237993 46.08117748 0.8125 51.125 C-2.40045776 59.20544954 -5.25295481 67.39680261 -8.0625 75.625 C-18.15056818 105.15056818 -18.15056818 105.15056818 -20 107 C-22.48569376 107.2641233 -24.94483615 107.46848925 -27.4375 107.625 C-28.13166016 107.6765625 -28.82582031 107.728125 -29.54101562 107.78125 C-34.75151037 108.12424481 -34.75151037 108.12424481 -37 107 C-37.63507983 100.85897049 -35.34737068 95.98648643 -33.1328125 90.39453125 C-32.29906821 88.23206742 -31.46744799 86.06878373 -30.63769531 83.90478516 C-29.98516785 82.20857025 -29.98516785 82.20857025 -29.31945801 80.47808838 C-27.12960502 74.70564076 -25.05992037 68.89130842 -22.9921875 63.07421875 C-22.36283295 61.30777512 -22.36283295 61.30777512 -21.72076416 59.50564575 C-20.43716343 55.9001919 -19.15586841 52.29392534 -17.875 48.6875 C-8.12175649 21.25168111 -8.12175649 21.25168111 -3.9453125 9.89453125 C-3.65776093 9.1114006 -3.37020935 8.32826996 -3.07394409 7.52140808 C-1.12679596 2.25359192 -1.12679596 2.25359192 0 0 Z " fill="#BA96B7" transform="translate(254,104)"/>
<path d="M0 0 C4.70270446 2.12741392 8.16393369 4.62060825 12 8 C11.4017119 11.07210855 10.49080941 12.98477783 8.5625 15.4375 C8.02753906 16.12714844 7.49257812 16.81679687 6.94140625 17.52734375 C6.30074219 18.34332031 5.66007812 19.15929687 5 20 C3.76790118 21.59953185 2.5358943 23.19913594 1.3059082 24.80029297 C0.43680228 25.93147925 -0.4331497 27.062016 -1.30395508 28.19189453 C-4.57315401 32.43419534 -7.80004453 36.70532292 -11 41 C-9.66598942 43.84510221 -8.15780931 46.26986754 -6.2421875 48.7578125 C-5.70223145 49.46139893 -5.16227539 50.16498535 -4.60595703 50.88989258 C-4.03474121 51.62747803 -3.46352539 52.36506348 -2.875 53.125 C-2.29476074 53.88256592 -1.71452148 54.64013184 -1.11669922 55.4206543 C1.42522912 58.72784503 3.97851157 62.01359841 6.671875 65.19921875 C7.39890625 66.06160156 8.1259375 66.92398438 8.875 67.8125 C9.83019531 68.90498047 9.83019531 68.90498047 10.8046875 70.01953125 C12 72 12 72 11.90234375 74.0625 C10.82417043 76.37753882 9.64603838 77.55608366 7.6875 79.1875 C7.09324219 79.69667969 6.49898437 80.20585937 5.88671875 80.73046875 C3.90908216 82.0611766 2.32899925 82.57327387 0 83 C-1.30020011 81.61211198 -2.5898193 80.21430742 -3.875 78.8125 C-4.59429687 78.03519531 -5.31359375 77.25789063 -6.0546875 76.45703125 C-7.9817092 74.02310224 -9.01300111 71.92463354 -10 69 C-10.66 69 -11.32 69 -12 69 C-13.68493737 66.82300127 -15.26194625 64.64488281 -16.8125 62.375 C-19.36080423 58.68169372 -21.8913936 55.0651886 -24.82421875 51.6640625 C-27 49 -27 49 -27 47 C-27.66 47 -28.32 47 -29 47 C-31.19281108 43.71078338 -31.5770649 42.81535142 -31 39 C-29.12890625 36.30859375 -29.12890625 36.30859375 -26.5625 33.4375 C-25.63291145 32.37327684 -24.70588419 31.30681174 -23.78125 30.23828125 C-23.31203125 29.69896973 -22.8428125 29.1596582 -22.359375 28.60400391 C-20.31545096 26.19226164 -18.44082568 23.66686464 -16.5625 21.125 C-13.11111585 16.46347043 -9.58560948 11.87092218 -6 7.3125 C-5.51861572 6.69971191 -5.03723145 6.08692383 -4.54125977 5.45556641 C-1.13640394 1.13640394 -1.13640394 1.13640394 0 0 Z " fill="#4684C5" transform="translate(117,117)"/>
<path d="M0 0 C2.7502355 1.4166203 3.90518942 3.22071697 5.69140625 5.75 C6.47095482 6.83325768 7.25236471 7.9151772 8.03515625 8.99609375 C8.48117187 9.61597168 8.9271875 10.23584961 9.38671875 10.87451172 C12.58146214 15.24219952 15.89963672 19.51778113 19.19140625 23.8125 C21.19174315 26.42412932 23.18886935 29.03726588 25.16601562 31.66650391 C26.28561765 33.13806003 27.42991214 34.5914472 28.60742188 36.01708984 C30.05078125 37.82421875 30.05078125 37.82421875 31.94140625 41 C31.26427171 45.57065812 27.80503752 48.98737738 24.94140625 52.5 C23.94597199 53.74297524 22.95119501 54.9864771 21.95703125 56.23046875 C21.45365234 56.85743652 20.95027344 57.4844043 20.43164062 58.13037109 C18.14757292 60.9959331 15.91868582 63.90272976 13.69140625 66.8125 C13.28075928 67.34584961 12.8701123 67.87919922 12.44702148 68.42871094 C10.57046924 70.86630205 8.70795934 73.31258145 6.8671875 75.77734375 C5.94486328 77.00130859 5.94486328 77.00130859 5.00390625 78.25 C4.47925781 78.95640625 3.95460938 79.6628125 3.4140625 80.390625 C1.94140625 82 1.94140625 82 -1.05859375 83 C-2.04859375 82.67 -3.03859375 82.34 -4.05859375 82 C-4.05859375 81.34 -4.05859375 80.68 -4.05859375 80 C-4.63609375 79.731875 -5.21359375 79.46375 -5.80859375 79.1875 C-8.09118055 77.98280141 -10.03238795 76.59201885 -12.05859375 75 C-10.64257064 70.77476975 -8.60509363 68.02973368 -5.68359375 64.6875 C0.57228499 57.41125859 6.243057 49.71529073 11.94140625 42 C8.78117129 36.9808033 5.41447971 32.25675358 1.62890625 27.6875 C-1.69948179 23.66735158 -4.99159562 19.62900606 -8.18359375 15.5 C-8.94929688 14.5203125 -9.715 13.540625 -10.50390625 12.53125 C-11.27347656 11.27828125 -11.27347656 11.27828125 -12.05859375 10 C-10.8754028 6.45042716 -9.64179458 5.54381212 -6.74609375 3.25 C-5.57626953 2.29867187 -5.57626953 2.29867187 -4.3828125 1.328125 C-2.05859375 0 -2.05859375 0 0 0 Z " fill="#D58CA6" transform="translate(283.05859375,117)"/>
<path d="M0 0 C0.25035503 5.29751253 0.43007191 10.59146735 0.54931641 15.89355469 C0.59909456 17.69006417 0.66695084 19.48617958 0.75439453 21.28125 C1.33228649 33.46457214 0.22623883 41.20288891 -7.83447266 50.65380859 C-8.54909668 51.42805176 -9.2637207 52.20229492 -10 53 C-9.49186768 53.8053418 -8.98373535 54.61068359 -8.46020508 55.44042969 C-7.24820964 57.36132812 -6.03621419 59.28222656 -4.82421875 61.203125 C-3.1814716 63.92072166 -3.1814716 63.92072166 -1.40429688 65.63085938 C0.69734093 69.17645974 0.36938132 72.70303233 0.29296875 76.703125 C0.28872391 77.54091492 0.28447906 78.37870483 0.28010559 79.24188232 C0.26334408 81.91158502 0.22569711 84.58052637 0.1875 87.25 C0.17244987 89.06248908 0.15876203 90.87499002 0.14648438 92.6875 C0.11344889 97.12529231 0.06168443 101.56251717 0 106 C-3.15849685 107.57924842 -6.5365128 107.14316514 -10 107.125 C-11.10601562 107.13080078 -11.10601562 107.13080078 -12.234375 107.13671875 C-17.7466804 107.1266598 -17.7466804 107.1266598 -20 106 C-20 91.81 -20 77.62 -20 63 C-32.87 63 -45.74 63 -59 63 C-58.98839844 65.85269531 -58.97679688 68.70539063 -58.96484375 71.64453125 C-58.95704698 74.40470264 -58.95097374 77.16487282 -58.94506836 79.92504883 C-58.94003685 81.84465076 -58.93321102 83.76424886 -58.92456055 85.68383789 C-58.91244331 88.44157864 -58.90675989 91.19926876 -58.90234375 93.95703125 C-58.89718246 94.81649857 -58.89202118 95.67596588 -58.88670349 96.56147766 C-58.88659019 97.76238289 -58.88659019 97.76238289 -58.88647461 98.98754883 C-58.884254 99.6914827 -58.88203339 100.39541656 -58.87974548 101.12068176 C-59 103 -59 103 -60 106 C-64.42641221 106.90005954 -68.31644703 107.00523762 -72.8125 106.625 C-73.95332031 106.53476563 -75.09414062 106.44453125 -76.26953125 106.3515625 C-79 106 -79 106 -80 105 C-80.09750476 103.63624871 -80.12631599 102.26750091 -80.12698364 100.90026855 C-80.12980347 100.01685287 -80.13262329 99.13343719 -80.13552856 98.22325134 C-80.13350433 97.24659012 -80.1314801 96.26992889 -80.12939453 95.26367188 C-80.13114685 94.24100723 -80.13289917 93.21834259 -80.13470459 92.16468811 C-80.13912527 88.76602508 -80.13618435 85.36741361 -80.1328125 81.96875 C-80.13348548 79.61844879 -80.13445545 77.26814765 -80.13571167 74.91784668 C-80.13718894 69.98477518 -80.13503316 65.05172175 -80.13037109 60.11865234 C-80.1246738 53.77949333 -80.12795265 47.44037664 -80.13394356 41.10121918 C-80.13754839 36.24582599 -80.13641094 31.39044292 -80.13381577 26.53504944 C-80.13314628 24.19694514 -80.13397566 21.85883994 -80.13629532 19.52073669 C-80.13882057 16.25924223 -80.13498304 12.99781737 -80.12939453 9.73632812 C-80.13243088 8.27133629 -80.13243088 8.27133629 -80.13552856 6.77674866 C-80.13270874 5.89333298 -80.12988892 5.0099173 -80.12698364 4.09973145 C-80.12660662 3.32764595 -80.12622959 2.55556046 -80.12584114 1.76007843 C-80 0 -80 0 -79 -1 C-77.58429877 -1.08651611 -76.164405 -1.10704904 -74.74609375 -1.09765625 C-73.46508789 -1.09282227 -73.46508789 -1.09282227 -72.15820312 -1.08789062 C-71.26037109 -1.07951172 -70.36253906 -1.07113281 -69.4375 -1.0625 C-68.53580078 -1.05798828 -67.63410156 -1.05347656 -66.70507812 -1.04882812 C-64.46998686 -1.03700225 -62.23502563 -1.0205222 -60 -1 C-58.81073728 3.23102588 -58.87443678 7.33909081 -58.90234375 11.703125 C-58.90335083 12.4461084 -58.90435791 13.1890918 -58.90539551 13.95458984 C-58.91061224 16.71974235 -58.9245735 19.48487279 -58.9375 22.25 C-58.958125 28.4375 -58.97875 34.625 -59 41 C-39.695 41.495 -39.695 41.495 -20 42 C-20 27.81 -20 13.62 -20 -1 C-4 -2 -4 -2 0 0 Z M-78 0 C-78 34.65 -78 69.3 -78 105 C-72.39 105 -66.78 105 -61 105 C-61 90.48 -61 75.96 -61 61 C-47.14 61 -33.28 61 -19 61 C-19 75.52 -19 90.04 -19 105 C-13.39 105 -7.78 105 -2 105 C-1.81491999 99.9282936 -1.65622567 94.86855408 -1.56054688 89.79614258 C-1.52062996 88.07633523 -1.4662722 86.35679382 -1.39648438 84.63793945 C-0.77501527 72.42886275 -0.77501527 72.42886275 -5.96875 61.67578125 C-6.69513672 60.89759033 -7.42152344 60.11939941 -8.16992188 59.31762695 C-10.39666406 56.49766116 -10.81801274 54.56205304 -11 51 C-9.3828125 48.296875 -9.3828125 48.296875 -7.125 45.75 C-2.3627167 40.27420387 -1.85820034 37.48134526 -1.90234375 30.2734375 C-1.9037587 29.41062164 -1.90517365 28.54780579 -1.90663147 27.65884399 C-1.91223812 24.8975277 -1.92479173 22.13629188 -1.9375 19.375 C-1.94251414 17.5052095 -1.9470772 15.63541774 -1.95117188 13.765625 C-1.9613597 9.17702723 -1.98093378 4.58860392 -2 0 C-7.61 0 -13.22 0 -19 0 C-19 14.19 -19 28.38 -19 43 C-32.86 43 -46.72 43 -61 43 C-61 28.81 -61 14.62 -61 0 C-66.61 0 -72.22 0 -78 0 Z " fill="#11111F" transform="translate(84,105)"/>
<path d="M0 0 C0.9486644 -0.00960754 1.8973288 -0.01921509 2.8747406 -0.02911377 C3.91002396 -0.03336365 4.94530731 -0.03761353 6.01196289 -0.04199219 C7.07443741 -0.04769226 8.13691193 -0.05339233 9.23158264 -0.05926514 C11.4904785 -0.06873757 13.74938833 -0.07525797 16.00830078 -0.07910156 C19.43881101 -0.0887385 22.8687046 -0.11971215 26.29907227 -0.15136719 C28.49503225 -0.15790395 30.69099653 -0.16315177 32.88696289 -0.16699219 C33.90402817 -0.17933899 34.92109344 -0.19168579 35.96897888 -0.20440674 C47.93340989 -0.16765628 56.41740356 3.03141724 64.85961914 11.47363281 C69.16302054 18.32719801 71.38154247 26.88638534 70.10961914 34.92675781 C68.65309568 40.9845713 66.63291468 45.44675334 62.54711914 50.16113281 C61.88711914 50.16113281 61.22711914 50.16113281 60.54711914 50.16113281 C62.44192458 52.59731124 64.25642768 54.89769368 66.54711914 56.97363281 C72.71093502 63.71530644 73.63317482 71.23285616 73.54711914 80.16113281 C72.89418256 88.34615917 69.96066579 95.33382293 64.48461914 101.47363281 C55.73883512 106.49780661 46.78366674 107.76592489 36.85180664 107.80566406 C35.69713898 107.82457199 34.54247131 107.84347992 33.35281372 107.86296082 C30.937881 107.89918 28.52279859 107.92645306 26.10766602 107.94506836 C22.3968843 107.97382839 18.68720519 108.02898263 14.97680664 108.08886719 C12.62266006 108.120974 10.26849308 108.15162623 7.91430664 108.18066406 C6.80296356 108.19515091 5.69162048 108.20963776 4.54660034 108.2245636 C3.52438385 108.23174911 2.50216736 108.23893463 1.44897461 108.24633789 C0.54807098 108.25425858 -0.35283264 108.26217926 -1.28103638 108.27033997 C-3.45288086 108.16113281 -3.45288086 108.16113281 -5.45288086 107.16113281 C-5.47621144 93.35772394 -5.4937944 79.55431811 -5.50469303 65.75089359 C-5.50992252 59.34214153 -5.51702136 52.93340267 -5.52832031 46.5246582 C-5.53914685 40.3455384 -5.54515719 34.16643133 -5.5477581 27.98730278 C-5.54961278 25.62407671 -5.55323418 23.26085137 -5.55861092 20.89763069 C-5.56581824 17.60011385 -5.56687193 14.30265034 -5.56640625 11.00512695 C-5.57000153 10.01754395 -5.5735968 9.02996094 -5.57730103 8.01245117 C-5.57592636 7.11917618 -5.5745517 6.22590118 -5.57313538 5.30555725 C-5.57405717 4.52479859 -5.57497896 3.74403994 -5.57592869 2.93962193 C-5.32721714 -0.65516548 -3.07309297 0.02503658 0 0 Z M-4.45288086 1.16113281 C-4.45288086 35.81113281 -4.45288086 70.46113281 -4.45288086 106.16113281 C8.26243164 106.31582031 8.26243164 106.31582031 21.23461914 106.47363281 C23.88323975 106.51915283 26.53186035 106.56467285 29.26074219 106.61157227 C49.04321844 107.09658535 49.04321844 107.09658535 65.67211914 97.47363281 C71.2841228 90.03737982 72.53229728 81.26737395 71.54711914 72.16113281 C69.66111575 63.46911719 65.52074497 57.54984368 58.54711914 52.16113281 C58.94543945 51.72542969 59.34375977 51.28972656 59.75415039 50.84082031 C66.36665421 43.40778682 68.94689002 36.7825686 68.82836914 26.85644531 C68.07601519 19.64638662 65.13194281 13.79245 59.54711914 9.16113281 C58.74274414 8.45988281 57.93836914 7.75863281 57.10961914 7.03613281 C40.39308829 -5.19547512 12.47781713 1.16113281 -4.45288086 1.16113281 Z " fill="#0C1115" transform="translate(142.452880859375,103.8388671875)"/>
<path d="M0 0 C-5.94 0 -11.88 0 -18 0 C-18 14.19 -18 28.38 -18 43 C-31.86 43 -45.72 43 -60 43 C-60 28.81 -60 14.62 -60 0 C-68.415 0.495 -68.415 0.495 -77 1 C-77.33 35.32 -77.66 69.64 -78 105 C-78.33 105 -78.66 105 -79 105 C-79.0231205 91.32697438 -79.04091359 77.65395336 -79.05181217 63.98091221 C-79.05704164 57.63269424 -79.06414044 51.2844896 -79.07543945 44.9362793 C-79.08626606 38.81551418 -79.09227635 32.69476191 -79.09487724 26.57398796 C-79.0967319 24.23309057 -79.10035329 21.89219391 -79.10573006 19.55130196 C-79.11293748 16.28491798 -79.11399107 13.01858785 -79.11352539 9.75219727 C-79.11712067 8.773965 -79.12071594 7.79573273 -79.12442017 6.78785706 C-79.1230455 5.90299622 -79.12167084 5.01813538 -79.12025452 4.10646057 C-79.12117631 3.33307626 -79.1220981 2.55969194 -79.12304783 1.76287174 C-79 0 -79 0 -78 -1 C-76.58429877 -1.08651611 -75.164405 -1.10704904 -73.74609375 -1.09765625 C-72.46508789 -1.09282227 -72.46508789 -1.09282227 -71.15820312 -1.08789062 C-70.26037109 -1.07951172 -69.36253906 -1.07113281 -68.4375 -1.0625 C-67.53580078 -1.05798828 -66.63410156 -1.05347656 -65.70507812 -1.04882812 C-63.46998686 -1.03700225 -61.23502563 -1.0205222 -59 -1 C-57.81073728 3.23102588 -57.87443678 7.33909081 -57.90234375 11.703125 C-57.90335083 12.4461084 -57.90435791 13.1890918 -57.90539551 13.95458984 C-57.91061224 16.71974235 -57.9245735 19.48487279 -57.9375 22.25 C-57.958125 28.4375 -57.97875 34.625 -58 41 C-38.695 41.495 -38.695 41.495 -19 42 C-19 27.81 -19 13.62 -19 -1 C-3 -2 -3 -2 0 0 Z " fill="#030407" transform="translate(83,105)"/>
<path d="M0 0 C5.61 0 11.22 0 17 0 C18.08243124 4.32972495 17.8657049 5.15332103 16.3046875 9.11328125 C15.92103027 10.10634277 15.53737305 11.0994043 15.14208984 12.12255859 C14.7239502 13.17523926 14.30581055 14.22791992 13.875 15.3125 C13.02912165 17.4978753 12.18536353 19.68407247 11.34375 21.87109375 C10.93511719 22.92925293 10.52648437 23.98741211 10.10546875 25.07763672 C8.75440204 28.64925078 7.54567687 32.24036471 6.375 35.875 C4.69616004 41.04241249 2.82237993 46.08117748 0.8125 51.125 C-2.40045776 59.20544954 -5.25295481 67.39680261 -8.0625 75.625 C-18.15056818 105.15056818 -18.15056818 105.15056818 -20 107 C-22.48569376 107.2641233 -24.94483615 107.46848925 -27.4375 107.625 C-28.13166016 107.6765625 -28.82582031 107.728125 -29.54101562 107.78125 C-34.75151037 108.12424481 -34.75151037 108.12424481 -37 107 C-37.125 104.125 -37.125 104.125 -37 101 C-36.01 100.01 -36.01 100.01 -35 99 C-35.33 101.31 -35.66 103.62 -36 106 C-31.05 106 -26.1 106 -21 106 C-20.67 104.68 -20.34 103.36 -20 102 C-15.65394633 88.39350889 -10.7428048 74.98580513 -5.79736328 61.58862305 C-0.54887159 47.3670398 4.63688965 33.12631176 9.62133789 18.80981445 C11.69560511 12.85364368 13.82361634 6.91976357 16 1 C8.08 1.495 8.08 1.495 0 2 C0 1.34 0 0.68 0 0 Z " fill="#171013" transform="translate(254,104)"/>
<path d="M0 0 C0.33 0 0.66 0 1 0 C3.49626249 30.13847392 3.49626249 30.13847392 2 45 C2 46.32 2 47.64 2 49 C2.99 49 3.98 49 5 49 C5.33 48.01 5.66 47.02 6 46 C8.97 46 11.94 46 15 46 C15 33.46 15 20.92 15 8 C15.66 7.67 16.32 7.34 17 7 C17 21.19 17 35.38 17 50 C11.39 50 5.78 50 0 50 C0 33.5 0 17 0 0 Z " fill="#422172" transform="translate(6,160)"/>
<path d="M0 0 C4.70270446 2.12741392 8.16393369 4.62060825 12 8 C11.4017119 11.07210855 10.49080941 12.98477783 8.5625 15.4375 C8.02753906 16.12714844 7.49257812 16.81679687 6.94140625 17.52734375 C6.30074219 18.34332031 5.66007812 19.15929687 5 20 C3.76790118 21.59953185 2.5358943 23.19913594 1.3059082 24.80029297 C0.43680228 25.93147925 -0.4331497 27.062016 -1.30395508 28.19189453 C-4.57315401 32.43419534 -7.80004453 36.70532292 -11 41 C-9.66598942 43.84510221 -8.15780931 46.26986754 -6.2421875 48.7578125 C-5.70223145 49.46139893 -5.16227539 50.16498535 -4.60595703 50.88989258 C-3.7491333 51.99627075 -3.7491333 51.99627075 -2.875 53.125 C-2.29476074 53.88256592 -1.71452148 54.64013184 -1.11669922 55.4206543 C1.42522912 58.72784503 3.97851157 62.01359841 6.671875 65.19921875 C7.76242188 66.49279297 7.76242188 66.49279297 8.875 67.8125 C9.83019531 68.90498047 9.83019531 68.90498047 10.8046875 70.01953125 C12 72 12 72 11.90234375 74.0625 C10.82417043 76.37753882 9.64603838 77.55608366 7.6875 79.1875 C7.09324219 79.69667969 6.49898437 80.20585937 5.88671875 80.73046875 C3.86206486 82.0928135 2.42634821 82.74198342 0 83 C-2.25 81.0625 -2.25 81.0625 -4 79 C-3.505 78.01 -3.505 78.01 -3 77 C-2.38125 77.7734375 -2.38125 77.7734375 -1.75 78.5625 C-0.13563089 80.21104097 -0.13563089 80.21104097 1.875 79.9375 C4.64685934 78.71462088 6.71393087 76.96855953 9 75 C7.51465296 70.47644312 4.96714642 67.14205481 2 63.5 C1.01542441 62.26318049 0.03105444 61.02619727 -0.953125 59.7890625 C-2.46543824 57.90303899 -3.98253578 56.02142926 -5.50976562 54.14746094 C-6.93371485 52.39817232 -8.3424445 50.63748664 -9.75 48.875 C-10.19214844 48.34326172 -10.63429688 47.81152344 -11.08984375 47.26367188 C-12.296875 45.7421875 -12.296875 45.7421875 -14 43 C-13.6224753 39.91975035 -12.5172048 38.07203197 -10.55859375 35.71484375 C-10.06085449 35.10648682 -9.56311523 34.49812988 -9.05029297 33.87133789 C-8.25196045 32.91408813 -8.25196045 32.91408813 -7.4375 31.9375 C-2.8887625 26.39308988 1.40221459 20.78413202 5.4765625 14.87890625 C5.97929688 14.25886719 6.48203125 13.63882813 7 13 C7.66 13 8.32 13 9 13 C8.84518205 10.29068581 8.51827919 8.53415961 6.59765625 6.5546875 C5.10228292 5.32320358 3.5537076 4.1570163 2 3 C0.35 3.66 -1.3 4.32 -3 5 C-1.125 1.125 -1.125 1.125 0 0 Z " fill="#0C131A" transform="translate(117,117)"/>
<path d="M0 0 C0.66 0 1.32 0 2 0 C0.41684937 3.50436989 -1.67720321 6.38053351 -4 9.4375 C-4.39300293 9.95610596 -4.78600586 10.47471191 -5.19091797 11.0090332 C-6.45646621 12.67589542 -7.72744827 14.33847963 -9 16 C-9.42442383 16.55494141 -9.84884766 17.10988281 -10.28613281 17.68164062 C-12.39583318 20.43788795 -14.5118665 23.18901031 -16.63671875 25.93359375 C-18.13201196 27.87376759 -19.61539948 29.8232267 -21.08203125 31.78515625 C-22.00048828 33.00525391 -22.00048828 33.00525391 -22.9375 34.25 C-23.46214844 34.95640625 -23.98679687 35.6628125 -24.52734375 36.390625 C-26 38 -26 38 -29 39 C-29.99 38.67 -30.98 38.34 -32 38 C-32 37.34 -32 36.68 -32 36 C-32.5775 35.731875 -33.155 35.46375 -33.75 35.1875 C-36.0325868 33.98280141 -37.9737942 32.59201885 -40 31 C-38.55631337 26.64514309 -36.35875396 23.77199182 -33.375 20.3125 C-32.47829684 19.26246093 -31.58247773 18.21166633 -30.6875 17.16015625 C-30.01460938 16.37342529 -30.01460938 16.37342529 -29.328125 15.57080078 C-26.12932453 11.78751361 -23.07577752 7.8833839 -20 4 C-20 7.77367442 -21.02411173 8.50092695 -23.4375 11.3125 C-26.30439476 14.84987822 -27.87957285 17.30334116 -28 22 C-28.66 22 -29.32 22 -30 22 C-32.68289349 27.75100404 -32.68289349 27.75100404 -32.0625 33.75 C-31.711875 34.4925 -31.36125 35.235 -31 36 C-24.85402697 33.67197991 -22.02419612 29.73234893 -18.25 24.625 C-17.64454346 23.82513672 -17.03908691 23.02527344 -16.4152832 22.20117188 C-15.18794303 20.57919638 -13.96499531 18.95388727 -12.74658203 17.32519531 C-10.26445668 14.02078354 -7.72452676 10.76229575 -5.1875 7.5 C-2.33661551 3.91036255 -2.33661551 3.91036255 0 0 Z " fill="#60475A" transform="translate(311,161)"/>
<path d="M0 0 C12.21 0 24.42 0 37 0 C41 7 41 7 40.75 9.4375 C40.5025 9.953125 40.255 10.46875 40 11 C39.649375 10.071875 39.29875 9.14375 38.9375 8.1875 C36.53826385 4.24036957 34.34446307 3.0884396 30 2 C25.19090966 1.50501683 20.3941609 1.39786503 15.5625 1.3125 C14.25861328 1.27833984 12.95472656 1.24417969 11.61132812 1.20898438 C8.40784774 1.12684385 5.20393854 1.06173702 2 1 C2 9.58 2 18.16 2 27 C6.50050108 26.88568246 11.00007519 26.75892633 15.5 26.625 C16.7684375 26.5940625 18.036875 26.563125 19.34375 26.53125 C28.84478199 26.27252203 28.84478199 26.27252203 38 24 C39.61147442 21.00571856 39.61147442 21.00571856 40 18 C40.75 19.6875 40.75 19.6875 41 22 C38.3431389 26.46352664 35.92424751 27.71424445 31 29 C27.47314453 29.22705078 27.47314453 29.22705078 23.6328125 29.1953125 C22.95322479 29.1924826 22.27363708 29.18965271 21.57345581 29.18673706 C19.42378392 29.17562964 17.27454386 29.15054391 15.125 29.125 C13.65886023 29.11495795 12.19271386 29.10583425 10.7265625 29.09765625 C7.15074542 29.07743104 3.57585046 29.03826713 0 29 C0 19.43 0 9.86 0 0 Z " fill="#0A171E" transform="translate(155,165)"/>
<path d="M0 0 C52 0 52 0 57.9375 3.5625 C58.70964844 4.01753906 59.48179687 4.47257812 60.27734375 4.94140625 C60.84582031 5.29074219 61.41429687 5.64007813 62 6 C62 6.33 62 6.66 62 7 C60.35 7 58.7 7 57 7 C56.505 6.01 56.505 6.01 56 5 C55.01 5 54.02 5 53 5 C52.34 4.34 51.68 3.68 51 3 C34.48764772 0.64109253 17.67548595 1.387802 1 1 C1 35.32 1 69.64 1 105 C0.67 105 0.34 105 0 105 C0 70.35 0 35.7 0 0 Z " fill="#365C78" transform="translate(138,105)"/>
<path d="M0 0 C4.37884199 -0.06881766 8.75581397 -0.12856132 13.13476562 -0.16479492 C14.62473909 -0.179896 16.11466801 -0.20037858 17.60449219 -0.22631836 C19.7442523 -0.26264584 21.88342566 -0.27971221 24.0234375 -0.29296875 C25.31169434 -0.3086792 26.59995117 -0.32438965 27.92724609 -0.34057617 C28.94125488 -0.22818604 29.95526367 -0.1157959 31 0 C31.66 0.99 32.32 1.98 33 3 C32.13487793 2.84152588 31.26975586 2.68305176 30.37841797 2.51977539 C27.20209848 2.0310932 24.15434061 1.79938342 20.9453125 1.68359375 C19.83671875 1.64169922 18.728125 1.59980469 17.5859375 1.55664062 C16.44382813 1.51732422 15.30171875 1.47800781 14.125 1.4375 C12.9596875 1.39431641 11.794375 1.35113281 10.59375 1.30664062 C7.72929158 1.20098437 4.86466045 1.10002901 2 1 C2 8.92 2 16.84 2 25 C6.39679693 24.91308309 10.79154375 24.80618858 15.1875 24.6875 C16.43337891 24.66494141 17.67925781 24.64238281 18.96289062 24.61914062 C20.16494141 24.58369141 21.36699219 24.54824219 22.60546875 24.51171875 C24.26292114 24.47244263 24.26292114 24.47244263 25.95385742 24.43237305 C30.70280907 23.75830128 33.22290178 21.90311415 36.3125 18.3125 C36.869375 17.549375 37.42625 16.78625 38 16 C37.66277668 19.03500987 37.19548997 20.74658707 35.3125 23.1875 C30.78785834 26.73384076 26.12433443 27.24880319 20.5078125 27.1953125 C19.4264502 27.19031738 18.34508789 27.18532227 17.23095703 27.18017578 C15.87599121 27.16196777 14.52102539 27.14375977 13.125 27.125 C8.79375 27.08375 4.4625 27.0425 0 27 C0 18.09 0 9.18 0 0 Z " fill="#06080A" transform="translate(155,122)"/>
<path d="M0 0 C3.92247359 3.69833224 7.1189547 7.42422217 10 12 C8.6371611 16.08851671 6.47613028 17.54626098 3 20 C-1.68862479 19.55434853 -4.87903834 16.28605031 -8 13 C-9.4375 10.125 -9.4375 10.125 -10 8 C-10.66 8 -11.32 8 -12 8 C-11.67 7.34 -11.34 6.68 -11 6 C-7.59679258 7.01176437 -6.24274669 7.64843582 -4.1875 10.625 C-3.795625 11.40875 -3.40375 12.1925 -3 13 C-2.01 12.67 -1.02 12.34 0 12 C1.0812391 5.93949386 1.0812391 5.93949386 0 0 Z " fill="#4C679F" transform="translate(117,178)"/>
<path d="M0 0 C4.95 0 9.9 0 15 0 C13.81114808 6.3765694 11.9016398 12.08316752 9.5 18.1015625 C7.26730419 23.78340931 5.35347007 29.58602401 3.41137695 35.37231445 C3.12738037 36.20206787 2.84338379 37.03182129 2.55078125 37.88671875 C2.29981689 38.63139404 2.04885254 39.37606934 1.7902832 40.14331055 C1 42 1 42 -1 44 C-1.25 38.375 -1.25 38.375 1 35 C1.39387788 32.67612053 1.73486085 30.34206251 2 28 C1.34 28 0.68 28 0 28 C1 26 1 26 3.5 23.8125 C6.48198783 20.45776369 6.57943115 18.37391601 7 14 C7.66 13.67 8.32 13.34 9 13 C9.33 12.01 9.66 11.02 10 10 C9.34 9.67 8.68 9.34 8 9 C8.33 7.02 8.66 5.04 9 3 C4.34947128 2.73067479 4.34947128 2.73067479 0 4 C0 2.68 0 1.36 0 0 Z " fill="#D390A4" transform="translate(255,105)"/>
<path d="M0 0 C0.33 0 0.66 0 1 0 C1.06058594 1.22976562 1.12117187 2.45953125 1.18359375 3.7265625 C1.26805005 5.35938427 1.35269547 6.99219627 1.4375 8.625 C1.47681641 9.43324219 1.51613281 10.24148437 1.55664062 11.07421875 C1.7883501 15.45887494 2.24430078 19.66901791 3 24 C3 26 3 28 3 30 C3.93199219 29.75636719 3.93199219 29.75636719 4.8828125 29.5078125 C9.22356252 28.80067277 13.48474432 28.8557163 17.875 28.875 C19.18404297 28.86919922 19.18404297 28.86919922 20.51953125 28.86328125 C25.45503085 28.87070305 30.11298604 29.24772305 35 30 C37.97624935 30.24540764 40.95537475 30.40662199 43.9375 30.5625 C44.71673828 30.60568359 45.49597656 30.64886719 46.29882812 30.69335938 C48.19907117 30.79828077 50.09951669 30.8995245 52 31 C52 31.33 52 31.66 52 32 C34.84 32 17.68 32 0 32 C0 21.44 0 10.88 0 0 Z " fill="#517CBD" transform="translate(139,178)"/>
<path d="M0 0 C0.33 0 0.66 0 1 0 C1.88476729 13.68229423 2.11628957 27.29075166 2 41 C6.29 41 10.58 41 15 41 C15.33 29.45 15.66 17.9 16 6 C16.33 6 16.66 6 17 6 C17 18.21 17 30.42 17 43 C11.39 43 5.78 43 0 43 C0 28.81 0 14.62 0 0 Z " fill="#543F94" transform="translate(65,167)"/>
<path d="M0 0 C0.66 0.99 1.32 1.98 2 3 C1.30568284 5.70445421 0.51424874 8.14852817 -0.47265625 10.74609375 C-0.75217636 11.51244644 -1.03169647 12.27879913 -1.31968689 13.06837463 C-2.22132193 15.529614 -3.14190373 17.98329864 -4.0625 20.4375 C-4.65678613 22.05620526 -5.2498983 23.67534205 -5.84179688 25.29492188 C-9.02302072 33.95339481 -12.34928719 42.52711611 -16 51 C-18.45796853 51.19436491 -20.91609294 51.3807742 -23.375 51.5625 C-24.42300781 51.64661133 -24.42300781 51.64661133 -25.4921875 51.73242188 C-30.7734375 52.11328125 -30.7734375 52.11328125 -33 51 C-33.125 48.125 -33.125 48.125 -33 45 C-32.34 44.34 -31.68 43.68 -31 43 C-31.33 45.31 -31.66 47.62 -32 50 C-27.05 50 -22.1 50 -17 50 C-16.67 48.68 -16.34 47.36 -16 46 C-13.28872567 37.51162575 -10.35470053 29.10206643 -7.3359375 20.71875 C-5.77004495 16.3598912 -4.22715 11.99318229 -2.6875 7.625 C-2.42074463 6.86848145 -2.15398926 6.11196289 -1.87915039 5.33251953 C-1.25253868 3.55509347 -0.62623447 1.77755901 0 0 Z " fill="#181C21" transform="translate(250,160)"/>
<path d="M0 0 C2.7502355 1.4166203 3.90518942 3.22071697 5.69140625 5.75 C6.47095482 6.83325768 7.25236471 7.9151772 8.03515625 8.99609375 C8.48117187 9.61597168 8.9271875 10.23584961 9.38671875 10.87451172 C12.58146214 15.24219952 15.89963672 19.51778113 19.19140625 23.8125 C21.1908811 26.42300384 23.18711726 29.0355 25.16992188 31.65869141 C26.29315283 33.14322626 27.42615981 34.62045553 28.57226562 36.08740234 C29.77429719 37.6678666 30.87079922 39.32771183 31.94140625 41 C31.61140625 41.99 31.28140625 42.98 30.94140625 44 C30.69390625 43.44183594 30.44640625 42.88367188 30.19140625 42.30859375 C28.71750092 39.58647484 26.93591595 37.43098027 24.94140625 35.0625 C20.21600119 29.36778108 15.68072161 23.54978622 11.20410156 17.65820312 C9.91127155 15.96042636 8.61021411 14.26916853 7.30859375 12.578125 C6.47749518 11.48986535 5.64675209 10.4013341 4.81640625 9.3125 C4.07132812 8.33925781 3.32625 7.36601563 2.55859375 6.36328125 C0.94140625 4 0.94140625 4 0.94140625 2 C-4.52785502 4.8814281 -4.52785502 4.8814281 -9.05859375 9 C-8.39859375 10.98 -7.73859375 12.96 -7.05859375 15 C-8.70859375 13.35 -10.35859375 11.7 -12.05859375 10 C-10.8754028 6.45042716 -9.64179458 5.54381212 -6.74609375 3.25 C-5.57626953 2.29867187 -5.57626953 2.29867187 -4.3828125 1.328125 C-2.05859375 0 -2.05859375 0 0 0 Z " fill="#161011" transform="translate(283.05859375,117)"/>
<path d="M0 0 C0.33 0 0.66 0 1 0 C1.08160748 1.89510699 1.13946459 3.79124504 1.1875 5.6875 C1.22230469 6.74324219 1.25710937 7.79898438 1.29296875 8.88671875 C0.96400017 12.38255817 -0.06793185 14.11928142 -2 17 C-2.165 17.845625 -2.33 18.69125 -2.5 19.5625 C-3.08236143 22.40151198 -4.04257205 23.88597782 -6 26 C-6.66 26 -7.32 26 -8 26 C-7.67558396 27.66842534 -7.34060811 29.33480481 -7 31 C-6.855625 31.7425 -6.71125 32.485 -6.5625 33.25 C-6.2840625 34.11625 -6.2840625 34.11625 -6 35 C-5.34 35.33 -4.68 35.66 -4 36 C-5.98 36 -7.96 36 -10 36 C-10.73874618 27.43977862 -8.10754484 20.83654303 -5 12.9375 C-4.51686109 11.67825842 -4.03507895 10.4184954 -3.5546875 9.15820312 C-2.38299594 6.10008816 -1.19788909 3.04792683 0 0 Z " fill="#7E94BA" transform="translate(229,173)"/>
<path d="M0 0 C5.28 0 10.56 0 16 0 C16 12.54 16 25.08 16 38 C15.01 38 14.02 38 13 38 C13.08378906 37.27039063 13.16757813 36.54078125 13.25390625 35.7890625 C14.00054652 28.13363692 13.9180091 20.84128994 13.31860352 13.18212891 C13.01864032 9.09270579 13.18173285 6.09133575 14 2 C10.37 2 6.74 2 3 2 C1.65486576 5.85938975 1.65486576 5.85938975 3 9 C2.34 9.66 1.68 10.32 1 11 C0 10 0 10 -0.09765625 7.71484375 C-0.06510417 5.14322917 -0.03255208 2.57161458 0 0 Z " fill="#34A3DF" transform="translate(66,106)"/>
<path d="M0 0 C0 3 0 3 -1.5625 5.75 C-3.29501359 9.66698726 -2.90603543 11.88165715 -2 16 C-1.01 16.33 -0.02 16.66 1 17 C3.6875 19.4375 3.6875 19.4375 6 22 C6 22.66 6 23.32 6 24 C6.66 24 7.32 24 8 24 C10.20536179 28.0271824 11.45660208 31.43545749 12 36 C7.45768787 31.73297951 3.7497571 26.96709531 0 22 C-0.56460938 21.28972656 -1.12921875 20.57945312 -1.7109375 19.84765625 C-3 18 -3 18 -3 16 C-3.66 16 -4.32 16 -5 16 C-7.17390864 12.73913704 -7.50341133 11.78130559 -7 8 C-5.46875 5.76171875 -5.46875 5.76171875 -3.5 3.6875 C-2.8503125 2.99011719 -2.200625 2.29273438 -1.53125 1.57421875 C-1.0259375 1.05472656 -0.520625 0.53523437 0 0 Z " fill="#35456A" transform="translate(93,148)"/>
<path d="M0 0 C1.5 1.9375 1.5 1.9375 2 4 C1.67 4.66 1.34 5.32 1 6 C0.34 6 -0.32 6 -1 6 C-1.33 6.99 -1.66 7.98 -2 9 C-2.5775 8.835 -3.155 8.67 -3.75 8.5 C-6.26664369 7.85537969 -6.26664369 7.85537969 -10 8 C-11.34164079 7.7018576 -12.67851173 7.37756808 -14 7 C-13.67 6.34 -13.34 5.68 -13 5 C-12.01 5 -11.02 5 -10 5 C-10 3.35 -10 1.7 -10 0 C-6.21603308 -1.26132231 -3.85909105 -0.91214879 0 0 Z M-17 8 C-16.01 8.33 -15.02 8.66 -14 9 C-15.32 10.65 -16.64 12.3 -18 14 C-18.33 13.34 -18.66 12.68 -19 12 C-18.0625 9.875 -18.0625 9.875 -17 8 Z " fill="#2FA9DF" transform="translate(125,124)"/>
<path d="M0 0 C0.33 0 0.66 0 1 0 C1.19466332 1.79090253 1.38051213 3.58276505 1.5625 5.375 C1.71912109 6.87160156 1.71912109 6.87160156 1.87890625 8.3984375 C2 11 2 11 1 13 C1.28112064 15.00800456 1.61067967 17.01014051 2 19 C-22.06538957 20.09084828 -22.06538957 20.09084828 -32.9375 20.1875 C-33.63351318 20.20039063 -34.32952637 20.21328125 -35.04663086 20.2265625 C-36.6994767 20.22992836 -38.35189525 20.12514566 -40 20 C-40.66 19.34 -41.32 18.68 -42 18 C-41.06728271 17.98541748 -40.13456543 17.97083496 -39.17358398 17.95581055 C-35.68619905 17.89446101 -32.19956549 17.82025599 -28.71264648 17.73754883 C-27.20851813 17.70446091 -25.70427042 17.67637955 -24.19995117 17.65356445 C-22.02731856 17.61971834 -19.85576387 17.5673938 -17.68359375 17.51171875 C-16.37962646 17.48553467 -15.07565918 17.45935059 -13.73217773 17.43237305 C-9.45148823 16.93645487 -6.79896086 15.99990323 -3 14 C-0.81005752 10.71508627 -0.64722661 9.16904361 -0.375 5.3125 C-0.30023438 4.31863281 -0.22546875 3.32476562 -0.1484375 2.30078125 C-0.09945312 1.54152344 -0.05046875 0.78226563 0 0 Z " fill="#3A94C2" transform="translate(196,176)"/>
<path d="M0 0 C0.66 0 1.32 0 2 0 C0.41684937 3.50436989 -1.67720321 6.38053351 -4 9.4375 C-4.39300293 9.95610596 -4.78600586 10.47471191 -5.19091797 11.0090332 C-6.45646621 12.67589542 -7.72744827 14.33847963 -9 16 C-9.42442383 16.55494141 -9.84884766 17.10988281 -10.28613281 17.68164062 C-15.49023902 24.48061741 -20.73254669 31.24998533 -26 38 C-26.66 37.67 -27.32 37.34 -28 37 C-21.27066619 28.15978722 -14.54020733 19.32383527 -7.60424805 10.64404297 C-5.53516669 8.03681668 -3.59783118 5.41353321 -1.81640625 2.60546875 C-1.21699219 1.74566406 -0.61757813 0.88585937 0 0 Z " fill="#191215" transform="translate(311,161)"/>
<path d="M0 0 C6.28050874 -0.02543977 12.56100409 -0.04290455 18.84155273 -0.05493164 C20.97632341 -0.05994778 23.11109067 -0.06676224 25.24584961 -0.07543945 C28.32146042 -0.08762435 31.39702563 -0.09325562 34.47265625 -0.09765625 C35.42084732 -0.10281754 36.36903839 -0.10797882 37.34596252 -0.11329651 C50.80929019 -0.11442589 50.80929019 -0.11442589 56.9375 3.5625 C57.70964844 4.01753906 58.48179687 4.47257812 59.27734375 4.94140625 C59.84582031 5.29074219 60.41429687 5.64007813 61 6 C61 6.33 61 6.66 61 7 C59.35 7 57.7 7 56 7 C55.505 6.01 55.505 6.01 55 5 C54.01 5 53.02 5 52 5 C51.34 4.34 50.68 3.68 50 3 C44.33938435 1.85587719 38.66991198 1.79002371 32.91015625 1.68359375 C31.96563095 1.66281265 31.02110565 1.64203156 30.04795837 1.62062073 C27.05287427 1.55562646 24.05770807 1.496475 21.0625 1.4375 C19.02277822 1.39426703 16.98306452 1.35065127 14.94335938 1.30664062 C9.96232212 1.19999695 4.9812029 1.0985906 0 1 C0 0.67 0 0.34 0 0 Z " fill="#786B82" transform="translate(139,105)"/>
<path d="M0 0 C0.33 0 0.66 0 1 0 C1 2.31 1 4.62 1 7 C1.66 7 2.32 7 3 7 C3.1206602 13.87763139 2.6635885 20.59960302 2.0234375 27.44921875 C1.99932759 31.10187038 2.64487845 33.63288501 4 37 C3.34 37 2.68 37 2 37 C1.67 37.99 1.34 38.98 1 40 C-0.27385127 36.1784462 -0.12353188 32.5931553 -0.09765625 28.61328125 C-0.0962413 27.79627243 -0.09482635 26.97926361 -0.09336853 26.13749695 C-0.08777294 23.52912732 -0.07522129 20.92084366 -0.0625 18.3125 C-0.05748443 16.54362103 -0.05292162 14.77474072 -0.04882812 13.00585938 C-0.03780496 8.67053981 -0.02054338 4.33528448 0 0 Z " fill="#31A6E0" transform="translate(139,141)"/>
<path d="M0 0 C0.33 0 0.66 0 1 0 C1 13.53 1 27.06 1 41 C-2.63 41 -6.26 41 -10 41 C-9.67 40.01 -9.34 39.02 -9 38 C-6.03 38 -3.06 38 0 38 C0 25.46 0 12.92 0 0 Z " fill="#572D97" transform="translate(21,168)"/>
<path d="M0 0 C4.37884199 -0.06881766 8.75581397 -0.12856132 13.13476562 -0.16479492 C14.62473909 -0.179896 16.11466801 -0.20037858 17.60449219 -0.22631836 C19.7442523 -0.26264584 21.88342566 -0.27971221 24.0234375 -0.29296875 C25.31169434 -0.3086792 26.59995117 -0.32438965 27.92724609 -0.34057617 C28.94125488 -0.22818604 29.95526367 -0.1157959 31 0 C31.66 0.99 32.32 1.98 33 3 C32.13938965 2.84152588 31.2787793 2.68305176 30.39208984 2.51977539 C27.13875093 2.02126103 24.01375194 1.79750626 20.7265625 1.68359375 C19.16542725 1.62643188 19.16542725 1.62643188 17.57275391 1.56811523 C16.26999512 1.52501221 14.96723633 1.48190918 13.625 1.4375 C7.375625 1.2209375 7.375625 1.2209375 1 1 C1 9.58 1 18.16 1 27 C0.67 27 0.34 27 0 27 C0 18.09 0 9.18 0 0 Z " fill="#232732" transform="translate(155,122)"/>
<path d="M0 0 C6.69447437 4.53862669 10.40900814 8.81801629 14 16 C14.13415472 18.6723621 14.04318541 21.32250488 14 24 C13.34 24 12.68 24 12 24 C10.66666667 18.66666667 9.33333333 13.33333333 8 8 C6.35 8.33 4.7 8.66 3 9 C2.01 6.03 1.02 3.06 0 0 Z " fill="#8D97BD" transform="translate(199,155)"/>
<path d="M0 0 C0.66 0 1.32 0 2 0 C2 0.66 2 1.32 2 2 C2.66 2 3.32 2 4 2 C4.33 1.34 4.66 0.68 5 0 C4.71572583 1.58467728 4.42225182 3.1677057 4.125 4.75 C3.96257812 5.63171875 3.80015625 6.5134375 3.6328125 7.421875 C3 10 3 10 1 14 C-3.95 14 -8.9 14 -14 14 C-13.67 12.68 -13.34 11.36 -13 10 C-13 10.99 -13 11.98 -13 13 C-11.3745692 12.85904936 -9.74965949 12.71207913 -8.125 12.5625 C-7.22007812 12.48128906 -6.31515625 12.40007812 -5.3828125 12.31640625 C-2.98889139 12.13010715 -2.98889139 12.13010715 -1 11 C-1.01160156 10.28972656 -1.02320313 9.57945312 -1.03515625 8.84765625 C-1.04869141 7.46900391 -1.04869141 7.46900391 -1.0625 6.0625 C-1.07410156 5.14597656 -1.08570313 4.22945312 -1.09765625 3.28515625 C-1 1 -1 1 0 0 Z " fill="#649BBD" transform="translate(232,196)"/>
<path d="M0 0 C4.03875436 3.69936323 5.75597756 8.18303922 6.22265625 13.5703125 C6.26702192 17.81674097 6.10028267 21.87393998 5 26 C3.13071583 22.78574308 2.64620484 20.12889921 2.375 16.4375 C2.26285156 15.01244141 2.26285156 15.01244141 2.1484375 13.55859375 C2.04108526 11.70818005 2 9.85352512 2 8 C1.67 7.175 1.34 6.35 1 5.5 C0 3 0 3 0 0 Z " fill="#B07F9E" transform="translate(205,117)"/>
<path d="M0 0 C4.95 0 9.9 0 15 0 C14.67 1.65 14.34 3.3 14 5 C13.34 5 12.68 5 12 5 C12 5.66 12 6.32 12 7 C10.68 7.33 9.36 7.66 8 8 C8.33 6.35 8.66 4.7 9 3 C4.34947128 2.73067479 4.34947128 2.73067479 0 4 C0 2.68 0 1.36 0 0 Z " fill="#CC8C98" transform="translate(255,105)"/>
<path d="M0 0 C0.66 0 1.32 0 2 0 C3.74001566 11.76664056 3.74001566 11.76664056 1.125 16.125 C-2.19190165 18.11514099 -5.308577 19.35138696 -9.01171875 20.421875 C-11.04918671 20.9497175 -11.04918671 20.9497175 -13 22 C-13 21.34 -13 20.68 -13 20 C-14.98 20 -16.96 20 -19 20 C-19 19.67 -19 19.34 -19 19 C-18.19175781 18.89042969 -17.38351563 18.78085938 -16.55078125 18.66796875 C-15.48214844 18.50941406 -14.41351563 18.35085937 -13.3125 18.1875 C-12.25675781 18.03667969 -11.20101562 17.88585937 -10.11328125 17.73046875 C-5.33160834 16.6085455 -2.72955283 15.09432925 0 11 C0.24187651 8.25481679 0.24187651 8.25481679 0.125 5.3125 C0.09792969 3.82169922 0.09792969 3.82169922 0.0703125 2.30078125 C0.04710937 1.54152344 0.02390625 0.78226563 0 0 Z " fill="#757898" transform="translate(192,130)"/>
<path d="M0 0 C1.32 0.33 2.64 0.66 4 1 C-5.19392474 7.93881112 -16.10325619 6.48874437 -27 6 C-27 5.67 -27 5.34 -27 5 C-21.72 4.34 -16.44 3.68 -11 3 C-11 3.66 -11 4.32 -11 5 C-10.401875 4.67 -9.80375 4.34 -9.1875 4 C-7 3 -7 3 -4 3 C-4 2.34 -4 1.68 -4 1 C-2.68 1.33 -1.36 1.66 0 2 C0 1.34 0 0.68 0 0 Z " fill="#319ED3" transform="translate(201,203)"/>
<path d="M0 0 C0.33 0 0.66 0 1 0 C1 12.54 1 25.08 1 38 C0.01 38 -0.98 38 -2 38 C-1.93433838 37.29327148 -1.86867676 36.58654297 -1.80102539 35.85839844 C-1.10367499 27.99223469 -0.70976708 20.14128194 -0.4375 12.25 C-0.39431641 11.0640625 -0.35113281 9.878125 -0.30664062 8.65625 C-0.20193082 5.77091324 -0.09975479 2.88551158 0 0 Z " fill="#4389C3" transform="translate(81,106)"/>
<path d="M0 0 C2.27759258 1.10571922 3.25044823 2.21998195 4.6953125 4.2890625 C5.13488281 4.89492187 5.57445312 5.50078125 6.02734375 6.125 C6.8828125 7.9140625 6.8828125 7.9140625 5.8828125 10.9140625 C5.04375685 9.79332388 4.21173419 8.66731703 3.3828125 7.5390625 C2.91875 6.91257812 2.4546875 6.28609375 1.9765625 5.640625 C0.8828125 3.9140625 0.8828125 3.9140625 0.8828125 1.9140625 C-4.58644877 4.7954906 -4.58644877 4.7954906 -9.1171875 8.9140625 C-8.4571875 10.8940625 -7.7971875 12.8740625 -7.1171875 14.9140625 C-8.7671875 13.2640625 -10.4171875 11.6140625 -12.1171875 9.9140625 C-10.93399655 6.36448966 -9.70038833 5.45787462 -6.8046875 3.1640625 C-5.63486328 2.21273437 -5.63486328 2.21273437 -4.44140625 1.2421875 C-2.1171875 -0.0859375 -2.1171875 -0.0859375 0 0 Z " fill="#130E0F" transform="translate(283.1171875,117.0859375)"/>
<path d="M0 0 C1.79824219 0.14018555 1.79824219 0.14018555 3.6328125 0.28320312 C4.8703125 0.38697266 6.1078125 0.49074219 7.3828125 0.59765625 C9.27386719 0.74750977 9.27386719 0.74750977 11.203125 0.90039062 C14.30526974 1.14715214 17.40671481 1.4006196 20.5078125 1.66015625 C20.5078125 1.99015625 20.5078125 2.32015625 20.5078125 2.66015625 C9.9478125 2.66015625 -0.6121875 2.66015625 -11.4921875 2.66015625 C-11.8221875 2.00015625 -12.1521875 1.34015625 -12.4921875 0.66015625 C-8.17194269 -0.20787713 -4.38686847 -0.35512745 0 0 Z " fill="#4789C2" transform="translate(170.4921875,207.33984375)"/>
<path d="M0 0 C3.09162264 1.38589981 4.49183541 2.49183541 7 5 C4.03 5 1.06 5 -2 5 C-2 6.65 -2 8.3 -2 10 C-2.99 10 -3.98 10 -5 10 C-5.33 10.99 -5.66 11.98 -6 13 C-6.99 13 -7.98 13 -9 13 C-8.34 11.68 -7.68 10.36 -7 9 C-6.01 9 -5.02 9 -4 9 C-3.566875 7.329375 -3.566875 7.329375 -3.125 5.625 C-2 2 -2 2 0 0 Z " fill="#3699C4" transform="translate(117,119)"/>
<path d="M0 0 C0 3 0 3 -1.5625 5.875 C-3.1776723 9.38624414 -3.10511574 10.40837384 -2 14 C-1.5 16.5 -1.5 16.5 -1 19 C-1.66 18.67 -2.32 18.34 -3 18 C-3 17.34 -3 16.68 -3 16 C-3.66 16 -4.32 16 -5 16 C-7.17390864 12.73913704 -7.50341133 11.78130559 -7 8 C-5.46875 5.76171875 -5.46875 5.76171875 -3.5 3.6875 C-2.8503125 2.99011719 -2.200625 2.29273438 -1.53125 1.57421875 C-1.0259375 1.05472656 -0.520625 0.53523437 0 0 Z " fill="#1F2A3D" transform="translate(93,148)"/>
<path d="M0 0 C0.33 0 0.66 0 1 0 C1 2.31 1 4.62 1 7 C0.34 7 -0.32 7 -1 7 C-0.67558396 8.66842534 -0.34060811 10.33480481 0 12 C0.144375 12.7425 0.28875 13.485 0.4375 14.25 C0.623125 14.8275 0.80875 15.405 1 16 C1.66 16.33 2.32 16.66 3 17 C1.02 17 -0.96 17 -3 17 C-3.40368295 10.54107286 -2.5915262 5.93891422 0 0 Z " fill="#3D718C" transform="translate(222,192)"/>
<path d="M0 0 C7.1755319 -0.6644011 11.91712637 1.20626433 18 5 C20.625 7.3125 20.625 7.3125 22 9 C21.67 9.99 21.34 10.98 21 12 C20.67 11.01 20.34 10.02 20 9 C18.17341067 7.91170406 18.17341067 7.91170406 16 7 C14.56195893 6.14674458 13.12447991 5.29254133 11.6875 4.4375 C7.68320344 2.18342578 4.56387981 1.29131148 0 1 C0 0.67 0 0.34 0 0 Z " fill="#1B1418" transform="translate(184,105)"/>
<path d="M0 0 C2.97 0.33 5.94 0.66 9 1 C9.204437 4.67986596 8.74565111 6.78360346 7 10 C5.83043409 8.52312468 4.66441854 7.04343707 3.5 5.5625 C2.8503125 4.73878906 2.200625 3.91507813 1.53125 3.06640625 C0 1 0 1 0 0 Z " fill="#9A6772" transform="translate(282,140)"/>
<path d="M0 0 C0.33 0.99 0.66 1.98 1 3 C1.99 3.33 2.98 3.66 4 4 C5.1875 6.5625 5.1875 6.5625 6 9 C7.32 8.67 8.64 8.34 10 8 C9.34 9.32 8.68 10.64 8 12 C7.01 11.67 6.02 11.34 5 11 C5 10.34 5 9.68 5 9 C4.071875 8.566875 4.071875 8.566875 3.125 8.125 C1 7 1 7 -1 5 C-0.625 2.375 -0.625 2.375 0 0 Z " fill="#6C5469" transform="translate(274,188)"/>
<path d="M0 0 C1.125 3.75 1.125 3.75 0 6 C-0.59296875 6.26554688 -1.1859375 6.53109375 -1.796875 6.8046875 C-4.73451395 8.39851289 -6.2205677 10.48673801 -8.25 13.125 C-8.95640625 14.03507813 -9.6628125 14.94515625 -10.390625 15.8828125 C-10.92171875 16.58148438 -11.4528125 17.28015625 -12 18 C-12 14.52901466 -11.5023906 14.01853855 -9.375 11.42578125 C-8.83359375 10.75869141 -8.2921875 10.09160156 -7.734375 9.40429688 C-7.16203125 8.71400391 -6.5896875 8.02371094 -6 7.3125 C-5.14148438 6.2596582 -5.14148438 6.2596582 -4.265625 5.18554688 C-2.85016172 3.45160436 -1.4281647 1.72348333 0 0 Z " fill="#102731" transform="translate(113,122)"/>
<path d="M0 0 C5.61 0 11.22 0 17 0 C17 0.33 17 0.66 17 1 C12.38 1 7.76 1 3 1 C2.67 2.98 2.34 4.96 2 7 C1.34 8.32 0.68 9.64 0 11 C0 7.37 0 3.74 0 0 Z " fill="#8E9CCB" transform="translate(139,106)"/>
<path d="M0 0 C2 2 2 2 2.125 4.625 C2.08375 5.40875 2.0425 6.1925 2 7 C3.65 7 5.3 7 7 7 C6.67 9.64 6.34 12.28 6 15 C2.93472486 12.64209605 1.27957513 11.2895895 0.4453125 7.44140625 C0.21263345 4.9559709 0.05329987 2.49540286 0 0 Z " fill="#5A9CCA" transform="translate(196,173)"/>
<path d="M0 0 C1.51460611 5.25522425 0.69386582 9.47349519 -1.5625 14.4375 C-2.036875 15.283125 -2.51125 16.12875 -3 17 C-3.66 17 -4.32 17 -5 17 C-3.83348574 11.07136283 -2.24480642 5.61201606 0 0 Z " fill="#4A4352" transform="translate(235,156)"/>
<path d="M0 0 C1.29760307 4.23331497 0.33707159 6.77766867 -1 11 C-1.31639532 12.45749318 -1.62893001 13.91583006 -1.9375 15.375 C-2.4634375 17.169375 -2.4634375 17.169375 -3 19 C-3.99 19.33 -4.98 19.66 -6 20 C-4.63125844 13.04223041 -2.5466871 6.61396893 0 0 Z " fill="#453540" transform="translate(242,136)"/>
<path d="M0 0 C2.31 0 4.62 0 7 0 C11.06153846 6.4 11.06153846 6.4 10.75 9.4375 C10.5025 9.953125 10.255 10.46875 10 11 C9.649375 10.071875 9.29875 9.14375 8.9375 8.1875 C6.40080981 4.0142355 4.5289826 3.53814504 0 2 C0 1.34 0 0.68 0 0 Z " fill="#354656" transform="translate(185,165)"/>
<path d="M0 0 C0.93818736 3.33441016 0.90782987 5.36868051 0.0625 8.75 C-0.13214844 9.54921875 -0.32679688 10.3484375 -0.52734375 11.171875 C-0.76130859 12.07679688 -0.76130859 12.07679688 -1 13 C-1.66 13 -2.32 13 -3 13 C-3.66 14.98 -4.32 16.96 -5 19 C-6.4216868 14.73493961 -4.65386682 11.79962257 -3.0625 7.8125 C-2.77181641 7.06291016 -2.48113281 6.31332031 -2.18164062 5.54101562 C-1.46274964 3.69075523 -0.73245347 1.84493352 0 0 Z " fill="#272B36" transform="translate(229,173)"/>
<path d="M0 0 C4.70270446 2.12741392 8.16393369 4.62060825 12 8 C11.67 8.99 11.34 9.98 11 11 C11 10.34 11 9.68 11 9 C10.443125 8.7525 9.88625 8.505 9.3125 8.25 C6.60028873 6.78393985 4.36412635 4.97010529 2 3 C0.35 3.66 -1.3 4.32 -3 5 C-1.125 1.125 -1.125 1.125 0 0 Z " fill="#081013" transform="translate(117,117)"/>
<path d="M0 0 C0.66 0 1.32 0 2 0 C0.59023295 3.03852705 -1.08870228 5.5939595 -3.125 8.25 C-3.66382812 8.95640625 -4.20265625 9.6628125 -4.7578125 10.390625 C-5.16773437 10.92171875 -5.57765625 11.4528125 -6 12 C-6.66 10.68 -7.32 9.36 -8 8 C-6.68 7.67 -5.36 7.34 -4 7 C-4 6.34 -4 5.68 -4 5 C-3.34 5 -2.68 5 -2 5 C-1.34 3.35 -0.68 1.7 0 0 Z " fill="#516EAF" transform="translate(79,144)"/>
<path d="M0 0 C7.51869512 -0.59672183 11.74031045 0.85647028 18 5 C18 5.33 18 5.66 18 6 C16.35 6 14.7 6 13 6 C12.67 5.34 12.34 4.68 12 4 C11.01 4 10.02 4 9 4 C8.34 3.34 7.68 2.68 7 2 C4.67724823 1.59952556 2.34260643 1.2602896 0 1 C0 0.67 0 0.34 0 0 Z " fill="#B987A4" transform="translate(182,106)"/>
<path d="M0 0 C2.97 0 5.94 0 9 0 C9 0.99 9 1.98 9 3 C5.7 3 2.4 3 -1 3 C-0.67 2.01 -0.34 1.02 0 0 Z " fill="#561CA0" transform="translate(12,206)"/>
<path d="M0 0 C1.32 0.66 2.64 1.32 4 2 C3.67 3.65 3.34 5.3 3 7 C0.525 6.01 0.525 6.01 -2 5 C-2 4.01 -2 3.02 -2 2 C-1.34 2 -0.68 2 0 2 C0 1.34 0 0.68 0 0 Z " fill="#79A2CE" transform="translate(196,165)"/>
<path d="M0 0 C0 1.32 0 2.64 0 4 C-2.65228812 5.07525194 -5.28368454 6.09456151 -8 7 C-7.62005832 4.24542282 -7.1926367 3.17979426 -5.125 1.25 C-3 0 -3 0 0 0 Z " fill="#CA8A98" transform="translate(284,119)"/>
<path d="M0 0 C0.66 0 1.32 0 2 0 C2 0.66 2 1.32 2 2 C2.66 2 3.32 2 4 2 C4.33 1.34 4.66 0.68 5 0 C4.67 1.98 4.34 3.96 4 6 C3.34 6 2.68 6 2 6 C1.67 6.99 1.34 7.98 1 9 C0.34 8.67 -0.32 8.34 -1 8 C-1.04241723 5.66705225 -1.04092937 3.33297433 -1 1 C-0.67 0.67 -0.34 0.34 0 0 Z " fill="#78A1CC" transform="translate(232,196)"/>
<path d="M0 0 C0.99 0.33 1.98 0.66 3 1 C3.33 3.64 3.66 6.28 4 9 C3.34 9 2.68 9 2 9 C-0.29013653 5.5647952 -0.17842973 4.014669 0 0 Z " fill="#5AABD7" transform="translate(221,199)"/>
<path d="M0 0 C2.64752004 2.57784846 4.94432065 4.91648098 7 8 C6.67 8.99 6.34 9.98 6 11 C4.99126984 9.73608512 3.99328178 8.46359117 3 7.1875 C2.443125 6.47980469 1.88625 5.77210938 1.3125 5.04296875 C0 3 0 3 0 0 Z " fill="#0C1119" transform="translate(107,162)"/>
<path d="M0 0 C2 3.75 2 3.75 2 6 C2.99 6 3.98 6 5 6 C5 6.99 5 7.98 5 9 C3.35 8.67 1.7 8.34 0 8 C0 5.36 0 2.72 0 0 Z " fill="#41ABDF" transform="translate(153,144)"/>
<path d="M0 0 C2.4375 0.625 2.4375 0.625 5 2 C5.8125 5.125 5.8125 5.125 6 8 C1.125 3.375 1.125 3.375 0 0 Z " fill="#614249" transform="translate(276,132)"/>
<path d="M0 0 C0.99 0.99 1.98 1.98 3 3 C0.25 7.875 0.25 7.875 -2 9 C-2 7.68 -2 6.36 -2 5 C-1.34 5 -0.68 5 0 5 C0 3.35 0 1.7 0 0 Z " fill="#47A1CD" transform="translate(207,194)"/>
<path d="M0 0 C0.75 1.6875 0.75 1.6875 1 4 C-0.80450953 6.87384851 -2.01312923 8.64363 -5.25 9.8125 C-5.8275 9.874375 -6.405 9.93625 -7 10 C-6.67 9.01 -6.34 8.02 -6 7 C-5.360625 6.896875 -4.72125 6.79375 -4.0625 6.6875 C-3.381875 6.460625 -2.70125 6.23375 -2 6 C-0.6954344 3.00384054 -0.6954344 3.00384054 0 0 Z " fill="#0E1A1F" transform="translate(195,183)"/>
<path d="M0 0 C0.99 0.33 1.98 0.66 3 1 C2.19152271 2.16945792 1.37810888 3.33550461 0.5625 4.5 C0.11003906 5.1496875 -0.34242188 5.799375 -0.80859375 6.46875 C-1.20175781 6.9740625 -1.59492188 7.479375 -2 8 C-2.33 8 -2.66 8 -3 8 C-3.36923077 3.44615385 -3.36923077 3.44615385 -1.5 1.1875 C-1.005 0.795625 -0.51 0.40375 0 0 Z " fill="#C783A5" transform="translate(296,177)"/>
<path d="M0 0 C0.66 0.33 1.32 0.66 2 1 C1.34 1.66 0.68 2.32 0 3 C0.66 4.98 1.32 6.96 2 9 C0.35 7.35 -1.3 5.7 -3 4 C-2.67 3.01 -2.34 2.02 -2 1 C-1.34 0.67 -0.68 0.34 0 0 Z " fill="#35262A" transform="translate(274,123)"/>
<path d="M0 0 C0.33 0.99 0.66 1.98 1 3 C-0.40445835 5.2636564 -2.1967913 7.0208685 -4 9 C-4.66 8.67 -5.32 8.34 -6 8 C-4.02 5.36 -2.04 2.72 0 0 Z " fill="#211920" transform="translate(289,190)"/>
<path d="M0 0 C3.48331435 3.01887244 4.79157144 5.56909529 6 10 C2.46413986 6.82679218 0.41421969 4.83256305 0 0 Z " fill="#52609B" transform="translate(109,185)"/>
<path d="M0 0 C0.33 0 0.66 0 1 0 C1.49230769 6.4 1.49230769 6.4 -1 9.4375 C-1.99 10.2109375 -1.99 10.2109375 -3 11 C-2.32829194 7.1936543 -1.27253436 3.64793184 0 0 Z " fill="#432F36" transform="translate(246,125)"/>
</svg>
